<svg width="736" height="91" viewBox="0 0 736 91" fill="none" xmlns="http://www.w3.org/2000/svg">
<path d="M693.149 2H677.858C677.632 2 677.415 2.08993 677.255 2.25C677.095 2.41007 677.005 2.62718 677.005 2.85355V30.5C676.833 53.7817 681.505 59 684.505 62C696.039 72.3414 722.702 66.8955 734.8 62.5733C734.939 62.5239 735.058 62.4462 735.162 62.3423L735.212 62.2929C735.399 62.1054 735.505 61.851 735.505 61.5858V3.11803C735.505 2.73926 735.291 2.393 734.952 2.22361L734.716 2.10557C734.577 2.03615 734.424 2 734.269 2H719.358C719.132 2 718.915 2.08993 718.755 2.25C718.595 2.41007 718.505 2.62718 718.505 2.85355V49.7792C718.505 50.2097 718.229 50.5923 717.812 50.6979C716.481 51.0348 714.48 51.3606 713.505 51.5C712.393 51.6601 710.217 51.9321 704.278 52.0165C698.847 52.0936 694.461 47.6635 694.406 42.2322L694.008 2.851C694.006 2.62601 693.915 2.41089 693.756 2.25179C693.595 2.09057 693.377 2 693.149 2Z" fill="#EE3F58"/>
<path fill-rule="evenodd" clip-rule="evenodd" d="M627.145 2.2803L626.64 2H610.504L610 2.2803V34.7197L610 65.6515L610.504 66H626.628L627.131 65.6515V42.2342H639.554C646.876 44.5491 650.895 46.9459 649.332 65.6515L649.836 66H666.471V65.303C667.359 49.4005 662.777 39.5547 657.675 34.0821C663.053 31.4575 667.057 20.7639 665.519 2.56061V2H648.87L648.366 2.2803C648.6 13.3939 648.219 21.6986 641.58 26.7681H627.145V2.2803Z" fill="#EE3F58"/>
<path fill-rule="evenodd" clip-rule="evenodd" d="M510.255 2.25C510.415 2.08993 510.632 2 510.858 2H526.149C526.377 2 526.595 2.09057 526.756 2.25179V2.25179C526.915 2.41089 527.006 2.62602 527.008 2.851L527.406 42.2322C527.461 47.6635 531.847 52.0936 537.278 52.0165C541.971 51.9498 544.314 51.7659 545.639 51.6128V51.6128C545.874 51.5857 546 51.3502 546 51.1146V3.11803C546 2.73926 546.214 2.393 546.553 2.22361L546.996 2.00206C546.999 2.0007 547.002 2 547.005 2V2H562.5V2C562.503 2 562.506 2.0007 562.509 2.00206L562.952 2.22361C563.291 2.393 563.505 2.73926 563.505 3.11803V51.1146C563.505 51.3502 563.631 51.5857 563.865 51.6128V51.6128C565.19 51.7659 567.533 51.9498 572.226 52.0165C577.657 52.0936 582.044 47.6635 582.099 42.2322L582.496 2.851C582.499 2.62602 582.589 2.41089 582.748 2.25179V2.25179C582.909 2.09057 583.128 2 583.356 2H598.646C598.873 2 599.09 2.08993 599.25 2.25V2.25C599.41 2.41007 599.5 2.62718 599.5 2.85355V30.5C599.672 53.7817 595 59 592 62C582.793 70.2543 567.098 68.4507 555.014 65.1885C554.842 65.142 554.663 65.142 554.491 65.1885C542.407 68.4507 526.711 70.2543 517.505 62C514.505 59 509.833 53.7817 510.005 30.5V2.85355C510.005 2.62718 510.095 2.41007 510.255 2.25V2.25Z" fill="#EE3F58"/>
<path d="M464.086 91H446.754C446.591 91 446.435 90.9355 446.321 90.8206C446.13 90.6301 446.086 90.3376 446.213 90.0997L458.287 67.4006C458.422 67.146 458.441 66.8454 458.339 66.5759L434.153 2.90299C434.06 2.65775 434.119 2.38068 434.305 2.19518C434.43 2.07021 434.599 2 434.776 2H450.086C450.351 2 450.605 2.10536 450.793 2.29289L450.851 2.35111C450.949 2.44929 451.026 2.56685 451.076 2.69629L466.778 43.1394C467.076 43.9069 468.042 43.9758 468.371 43.221C471.331 36.4243 478.688 14.8226 482.428 2.73158C482.477 2.57604 482.56 2.43982 482.675 2.3247L482.707 2.29289C482.895 2.10536 483.149 2 483.414 2H498.882C499.261 2 499.607 2.214 499.776 2.55279L499.837 2.67483C499.942 2.88488 499.972 3.11813 499.917 3.34642C493.835 28.5261 474.228 71.0323 465.072 90.3488C465.023 90.4522 464.959 90.5414 464.878 90.6223L464.793 90.7071C464.605 90.8946 464.351 91 464.086 91Z" fill="#EE3F58"/>
<path fill-rule="evenodd" clip-rule="evenodd" d="M403 65.1464C403 65.3728 402.91 65.5899 402.75 65.75V65.75C402.59 65.9101 402.373 66 402.146 66H386.854C386.627 66 386.41 65.9101 386.25 65.75V65.75C386.09 65.5899 386 65.3728 386 65.1464V18C386 17.4477 385.552 17 385 17H365.414C365.149 17 364.895 16.8946 364.707 16.7071L364.643 16.6428C364.549 16.5485 364.474 16.4364 364.424 16.313L359.061 3.14867C359.021 3.05049 359 2.94548 359 2.83946V2.83946C359 2.62211 359.086 2.41366 359.24 2.25996L359.25 2.25C359.41 2.08993 359.627 2 359.854 2H387H402H429.146C429.373 2 429.59 2.08993 429.75 2.25L429.76 2.25996C429.914 2.41366 430 2.62211 430 2.83946V2.83946C430 2.94548 429.979 3.05049 429.939 3.14867L424.576 16.313C424.526 16.4364 424.451 16.5485 424.357 16.6428L424.293 16.7071C424.105 16.8946 423.851 17 423.586 17H404C403.448 17 403 17.4477 403 18V65.1464Z" fill="#EE3F58"/>
<path fill-rule="evenodd" clip-rule="evenodd" d="M332.146 2C332.373 2 332.59 2.08993 332.75 2.25V2.25C332.91 2.41007 333 2.62718 333 2.85355V24.0327C333 24.7376 333.711 25.2241 334.386 25.0197C338.89 23.6546 344.718 23.6915 351.5 25.5C359 27.5 370.259 42 364 55C358.8 65.8 342.833 68.1667 335.5 68C335.228 67.9938 334.962 67.9878 334.701 67.9819C326.442 67.7957 323.545 67.7304 317.749 66.0718C317.587 66.0254 317.437 65.9375 317.318 65.8182L317.293 65.7929C317.105 65.6054 317 65.351 317 65.0858V2.85355C317 2.62718 317.09 2.41007 317.25 2.25V2.25C317.41 2.08993 317.627 2 317.854 2H332.146ZM333.727 38.965C333.299 39.0823 333 39.4762 333 39.9199V53.3899C333 53.7742 333.217 54.13 333.579 54.2577C337.941 55.7944 346.411 53.3836 349.5 48.5C350.201 47.3921 350.427 45.3677 350 43C349.51 40.5491 345.656 35.6955 333.727 38.965Z" fill="#EE3F58"/>
<path d="M285.5 66L285 65.5V16.6838H268.703C268.136 25.2892 265.4 45.5 259 65.5L258.5 66H241V65C244.167 54.6667 250.9 29.3 252.5 2.5L253 2H301.5L302 2.5V65.5L301.5 66H285.5Z" fill="#EE3F58"/>
<path fill-rule="evenodd" clip-rule="evenodd" d="M228.824 19.2508V65.2532C228.824 65.5306 228.708 65.7953 228.504 65.9833C228.386 66.0923 228.241 66.1717 228.085 66.2127C222.283 67.744 219.387 67.8042 211.124 67.9759C210.863 67.9814 210.596 67.9869 210.324 67.9926C202.991 68.1462 187.024 65.9649 181.824 56.0106C175.565 44.0285 186.824 30.664 194.324 28.8206C201.12 27.1502 206.959 27.1195 211.467 28.3858C212.134 28.5733 212.824 28.0883 212.824 27.3949V25.0362C212.824 19.4337 209.542 14.214 203.94 14.2126C200.747 14.2119 196.93 14.7342 192.716 16.2356C192.466 16.3246 192.189 16.3154 191.948 16.2044L191.618 16.0521C191.427 15.9642 191.269 15.8183 191.165 15.6353L185.096 4.87753C184.927 4.57769 184.924 4.21193 185.088 3.90932L185.141 3.81139C185.259 3.59416 185.445 3.43049 185.679 3.35014C192.12 1.13587 204.676 -1.37765 216.358 0.894925C224.614 2.50079 228.824 10.8408 228.824 19.2508ZM212.077 41.2261C212.515 41.3365 212.824 41.7351 212.824 42.1867V54.4555C212.824 54.851 212.595 55.2146 212.218 55.3352C207.848 56.7336 199.407 54.5114 196.324 50.0196C195.623 48.9984 195.397 47.1326 195.824 44.9502C196.314 42.6925 200.164 38.2227 212.077 41.2261Z" fill="#EE3F58"/>
<path fill-rule="evenodd" clip-rule="evenodd" d="M79.1624 53.57C69.301 53.57 66.2631 50.7335 66.2631 34C66.2631 15.972 69.5533 14.43 79.1624 14.43C88.7714 14.43 92.314 15.972 92.314 34C92.314 51 89.0238 53.57 79.1624 53.57ZM79.1624 0.256999C57.6636 0.256999 49.3164 9.528 49.3164 33.743C49.3164 57.958 57.6636 67.743 79.1624 67.743C100.661 67.743 109.261 58.215 109.261 33.743C109.261 9.271 100.661 0.256999 79.1624 0.256999ZM168.439 50.9905C168.439 50.7335 168.186 50.4765 167.934 50.4765H167.177C163.634 51.7615 156.81 53.056 152.006 53.056C141.64 53.056 136.835 50.2195 136.835 34C136.835 21.1215 138.35 14.944 152.006 14.944C155.801 14.944 159.596 15.458 164.148 17C164.4 17 164.905 17 165.158 16.486C166.924 13.1355 168.953 9.271 171.224 4.1215V3.3505C171.224 3.0935 170.972 2.83651 170.719 2.83651C164.905 1.03751 157.568 0 151.249 0C129.498 0 119.889 10.299 119.889 33.743C119.889 57.187 129.498 68 151.249 68C156.558 68 167.438 66.715 172.495 64.6495C173 64.3925 173 64.1355 173 63.6215L168.448 51L168.439 50.9905ZM44.7643 2.06551H0.757132C0.252377 2.06551 0 2.57951 0 3.0935V65.1635C0 65.6775 0.252377 65.9345 0.757132 65.9345H15.6754C16.1802 65.9345 16.4326 65.6775 16.4326 65.1635V17H39.4456C39.698 17 39.9504 16.743 40.2028 16.486C41.9694 12.3645 43.7454 7.729 45.512 3.3505V2.57951C45.2597 2.32251 45.0073 2.06551 44.7549 2.06551H44.7643Z" fill="#0065B1"/>
</svg>
